<svg width="50" height="50" viewBox="0 0 50 50" fill="none" xmlns="http://www.w3.org/2000/svg">
<path d="M30.2461 38.2149H31.9092C35.6396 38.2149 38.6641 35.1905 38.6641 31.46V19.8213C38.6641 16.8194 36.7061 14.2754 33.999 13.3955C33.8281 13.3399 33.6953 13.2061 33.6377 13.0362L32.4844 9.62112C32.3555 9.23831 31.8623 9.13479 31.5898 9.43362L28.4609 12.8604L28.459 12.8623C28.3457 12.9873 28.1904 13.0664 28.0215 13.0664H22.209C22.04 13.0664 21.8848 12.9873 21.7715 12.8623L21.7695 12.8604L18.6406 9.43362C18.3682 9.13479 17.875 9.23831 17.7461 9.62112L16.5859 13.0547C16.5293 13.2227 16.3975 13.3555 16.2295 13.4121C13.5479 14.3076 11.6152 16.8379 11.6152 19.8213V31.46C11.6152 35.1905 14.6396 38.2149 18.3701 38.2149H26.1523" stroke="white" stroke-width="2" stroke-miterlimit="10"/>
<path d="M30.2461 38.2148V29.6826H32.2725L33.0107 26.2549H30.2461V24.5547C30.2461 24.2061 30.3379 23.9248 30.5225 23.7119C30.707 23.499 30.9453 23.3936 31.2383 23.3936H32.9219V19.3281H30.6289C29.2217 19.3281 28.124 19.6748 27.335 20.3691C26.5469 21.0625 26.1523 22.0195 26.1523 23.2373V26.2549H24.707V29.6826H26.1523V38.2148" stroke="white" stroke-width="2" stroke-linecap="round" stroke-linejoin="round"/>
</svg>
