<svg width="51" height="50" viewBox="0 0 51 50" fill="none" xmlns="http://www.w3.org/2000/svg">
<path d="M38.9688 18.9678V30.6065C38.9688 34.3369 35.9443 37.3614 32.2139 37.3614H18.6748C14.9443 37.3614 11.9199 34.3369 11.9199 30.6065V18.9678C11.9199 15.9844 13.8525 13.4541 16.5342 12.5586C16.7021 12.502 16.834 12.3692 16.8906 12.2012L18.0508 8.76761C18.1797 8.38479 18.6729 8.28128 18.9453 8.58011L22.0742 12.0069L22.0762 12.0088C22.1895 12.1338 22.3447 12.2129 22.5137 12.2129H28.3262C28.4951 12.2129 28.6504 12.1338 28.7637 12.0088L28.7656 12.0069L31.8945 8.58011C32.167 8.28128 32.6602 8.38479 32.7891 8.76761L33.9424 12.1826C34 12.3526 34.1328 12.4864 34.3037 12.542C37.0107 13.4219 38.9688 15.9658 38.9688 18.9678Z" stroke="white" stroke-width="2" stroke-miterlimit="10"/>
<path d="M25.4736 30.2432C28.2804 30.2432 30.5557 27.9679 30.5557 25.1611C30.5557 22.3544 28.2804 20.0791 25.4736 20.0791C22.6669 20.0791 20.3916 22.3544 20.3916 25.1611C20.3916 27.9679 22.6669 30.2432 25.4736 30.2432Z" stroke="white" stroke-width="2" stroke-miterlimit="10"/>
<path d="M33.167 19.4502C33.7355 19.4502 34.1963 18.9894 34.1963 18.4209C34.1963 17.8524 33.7355 17.3916 33.167 17.3916C32.5985 17.3916 32.1377 17.8524 32.1377 18.4209C32.1377 18.9894 32.5985 19.4502 33.167 19.4502Z" stroke="white" stroke-width="2" stroke-miterlimit="10"/>
</svg>
