<svg width="50" height="50" viewBox="0 0 50 50" fill="none" xmlns="http://www.w3.org/2000/svg">
<g clip-path="url(#clip0_7_624)">
<path d="M39.7861 23.9893C39.7187 22.7491 39.5547 21.6065 39.3398 20.5753C39.0781 19.3262 38.7431 18.2403 38.4131 17.3458C38.1142 16.5352 37.4511 15.9161 36.624 15.669C36.0937 15.5118 35.5283 15.3565 34.9267 15.2071L33.5566 11.2012C33.4179 10.795 32.8896 10.6915 32.6074 11.0147L29.7685 14.2667C28.4853 14.1173 27.1201 14.0216 25.6797 14.003C23.9482 13.9805 22.3154 14.0714 20.8008 14.2374L17.874 10.8819C17.5918 10.5587 17.0635 10.6622 16.9248 11.0684L15.5215 15.168C14.8818 15.3272 14.2803 15.4913 13.7207 15.6573C12.8672 15.9073 12.1894 16.5587 11.9033 17.4024C11.2461 19.3341 10.5869 22.0714 10.6074 25.3751C10.626 28.544 11.2627 31.1739 11.9033 33.0577C12.1914 33.8995 12.873 34.5479 13.7265 34.7969C16.6621 35.6524 20.7031 36.4757 25.5303 36.4298C30.0293 36.3887 33.8095 35.6046 36.6162 34.7843C37.4492 34.5401 38.1162 33.9161 38.417 33.1016C39.1133 31.2051 39.8447 28.4405 39.8203 25.0665C39.8174 24.6993 39.8066 24.3399 39.7861 23.9893ZM28.7344 25.6983L23.1172 28.9434C22.7441 29.1573 22.2783 28.8897 22.2783 28.4591V21.9718C22.2783 21.5411 22.7441 21.2735 23.1172 21.4874L28.7344 24.7325C29.1074 24.9464 29.1074 25.4844 28.7344 25.6983Z" stroke="white" stroke-width="2" stroke-miterlimit="10"/>
<path d="M28.7344 25.6982L23.1172 28.9434C22.7441 29.1572 22.2783 28.8896 22.2783 28.459V21.9717C22.2783 21.541 22.7441 21.2734 23.1172 21.4873L28.7344 24.7324C29.1074 24.9463 29.1074 25.4844 28.7344 25.6982Z" stroke="white" stroke-width="2" stroke-miterlimit="10"/>
<path d="M28.7344 25.6982L23.1172 28.9434C22.7441 29.1572 22.2783 28.8896 22.2783 28.459V21.9717C22.2783 21.541 22.7441 21.2734 23.1172 21.4873L28.7344 24.7324C29.1074 24.9463 29.1074 25.4844 28.7344 25.6982Z" stroke="white" stroke-width="2" stroke-miterlimit="10"/>
</g>
<defs>
<clipPath id="clip0_7_624">
<rect width="50" height="50" fill="white"/>
</clipPath>
</defs>
</svg>
