<svg width="40" height="40" viewBox="0 0 40 40" fill="none" xmlns="http://www.w3.org/2000/svg">
<path d="M32.7422 25.6016V10.3281C32.7422 9.28906 31.8984 8.45312 30.8672 8.45312H9.13281C8.09375 8.45312 7.25781 9.29688 7.25781 10.3281V25.6016C7.25781 26.6406 8.10156 27.4766 9.13281 27.4766H15.9375V30.3828H13.4219C13.1016 30.3828 12.8359 30.6484 12.8359 30.9688C12.8359 31.2891 13.1016 31.5547 13.4219 31.5547H16.5234H23.4688H26.5703C26.8906 31.5547 27.1562 31.2891 27.1562 30.9688C27.1562 30.6484 26.8906 30.3828 26.5703 30.3828H24.0625V27.4766H30.8672C31.9063 27.4766 32.7422 26.6328 32.7422 25.6016ZM8.42969 25.6016V10.3281C8.42969 9.9375 8.75 9.625 9.13281 9.625H30.8672C31.2578 9.625 31.5703 9.94531 31.5703 10.3281V25.6016C31.5703 25.9922 31.25 26.3047 30.8672 26.3047H23.4766H16.5312H9.14062C8.74219 26.3047 8.42969 25.9922 8.42969 25.6016ZM22.8906 30.3828H17.1094V27.4766H22.8906V30.3828Z" fill="white"/>
<path d="M20 23.6797C20.0312 23.6797 20.0703 23.6797 20.1016 23.6719C20.1172 23.6719 20.1328 23.6641 20.1484 23.6641H20.1562C20.1719 23.6562 20.1875 23.6563 20.1953 23.6484H20.2031C20.2188 23.6406 20.2266 23.6406 20.2422 23.6328C20.2422 23.6328 20.25 23.6328 20.25 23.625C20.2656 23.6172 20.2891 23.6094 20.3047 23.5938C20.3125 23.5859 20.3203 23.5859 20.3203 23.5781C20.3359 23.5625 20.3594 23.5547 20.375 23.5391C20.3984 23.5234 22.4297 21.8281 25.7969 21.8281C26.5703 21.8281 27.3594 21.9141 28.1562 22.0937C28.3281 22.1328 28.5078 22.0859 28.6484 21.9766C28.7891 21.8672 28.8672 21.6953 28.8672 21.5234V13.1016C28.8672 12.8281 28.6797 12.5859 28.4062 12.5312C27.5312 12.3359 26.6484 12.2422 25.7969 12.2422C22.8281 12.2422 20.7969 13.3906 20 13.9453C19.1953 13.3906 17.1641 12.2422 14.2031 12.2422C13.3438 12.2422 12.4687 12.3437 11.5937 12.5312C11.3281 12.5937 11.1328 12.8281 11.1328 13.1016V21.5234C11.1328 21.7031 11.2109 21.8672 11.3516 21.9766C11.4922 22.0859 11.6719 22.1328 11.8438 22.0937C12.6406 21.9219 13.4297 21.8281 14.2031 21.8281C17.5625 21.8281 19.5938 23.5078 19.625 23.5391C19.7266 23.6328 19.8594 23.6797 20 23.6797ZM27.7031 13.5859V20.8203C27.0625 20.7188 26.4297 20.6641 25.8047 20.6641C23.3984 20.6641 21.6094 21.4219 20.5938 22V14.9688C21.1875 14.5469 23.0547 13.4141 25.8047 13.4141C26.4219 13.4141 27.0625 13.4687 27.7031 13.5859ZM12.2969 20.8203V13.5859C12.9375 13.4687 13.5703 13.4141 14.1953 13.4141C16.9531 13.4141 18.8125 14.5469 19.4062 14.9688V22C18.3906 21.4219 16.5938 20.6641 14.1953 20.6641C13.5781 20.6641 12.9375 20.7109 12.2969 20.8203Z" fill="white"/>
<path d="M22.6797 19.1016C22.8281 19.1016 22.9766 19.0469 23.0938 18.9297L24 18.0234L24.7187 18.7422C24.8281 18.8516 24.9766 18.9141 25.1328 18.9141C25.1953 18.9141 25.25 18.9062 25.3125 18.8828C25.5234 18.8125 25.6719 18.6406 25.7109 18.4219L26.1797 15.6875C26.2109 15.5 26.1484 15.3125 26.0156 15.1719C25.8828 15.0391 25.6875 14.9766 25.5 15.0078L22.7656 15.4766C22.5469 15.5156 22.375 15.6641 22.3047 15.875C22.2344 16.0859 22.2969 16.3125 22.4453 16.4687L23.1641 17.1875L22.2656 18.1016C22.0391 18.3281 22.0391 18.7031 22.2656 18.9297C22.3828 19.0469 22.5312 19.1016 22.6797 19.1016ZM24.8828 16.3125L24.7422 17.1172L24.4062 16.7812L24.0703 16.4453L24.8828 16.3125Z" fill="white"/>
</svg>
