<svg width="40" height="40" viewBox="0 0 40 40" fill="none" xmlns="http://www.w3.org/2000/svg">
<path d="M20.8841 19.1647L21.1636 18.8881C21.7026 18.3491 21.9706 17.6344 21.9706 16.9254C21.9706 16.2135 21.7026 15.5017 21.1636 14.9627C20.0857 13.8848 18.319 13.8848 17.2383 14.9627L16.9616 15.2423L16.682 14.9627C15.6042 13.8848 13.8375 13.8848 12.7596 14.9627C12.2177 15.5017 11.9497 16.2135 11.9497 16.9254C11.9497 17.6344 12.2177 18.3491 12.7596 18.8881L13.0362 19.1647L16.8191 22.9476C16.8978 23.0263 17.0254 23.0263 17.104 22.9475L20.8841 19.1647Z" stroke="white" stroke-width="2" stroke-miterlimit="10" stroke-linecap="round" stroke-linejoin="round"/>
<path d="M13.9348 18.3201L15.305 19.6768" stroke="white" stroke-width="2" stroke-miterlimit="10" stroke-linecap="round" stroke-linejoin="round"/>
<path d="M15.9399 20.3085L16.1086 20.4687" stroke="white" stroke-width="2" stroke-miterlimit="10" stroke-linecap="round" stroke-linejoin="round"/>
<path d="M27.2035 16.0333H27.1835L26.054 16.6429L25.8843 15.9731L27.3031 15.2134H28.0531V21.71H27.2035V16.0333Z" fill="white"/>
<path d="M17.1246 27.0436L17.1496 27.0769L19.7746 30.7019C19.8602 30.8141 20.1436 30.8068 20.2246 30.6852L22.8662 27.0852L22.8996 27.0436H32.7329C33.2662 27.0436 33.6996 26.6102 33.6996 26.0769V10.1852C33.6996 9.6519 33.2662 9.21857 32.7329 9.21857H7.26623C6.73289 9.21857 6.29956 9.6519 6.29956 10.1852V26.0769C6.29956 26.6102 6.73289 27.0436 7.26623 27.0436L17.1246 27.0436Z" stroke="white" stroke-width="2" stroke-miterlimit="10" stroke-linecap="round" stroke-linejoin="round"/>
</svg>
