<svg width="40" height="40" viewBox="0 0 40 40" fill="none" xmlns="http://www.w3.org/2000/svg">
<g clip-path="url(#clip0_5_414)">
<path d="M28.625 24.3594C27.0587 23.4822 25.902 22.0222 25.4062 20.2969C25.0691 19.1234 24.3593 18.0915 23.384 17.357C22.4087 16.6225 21.2209 16.2253 20 16.2253C18.7791 16.2253 17.5913 16.6225 16.616 17.357C15.6407 18.0915 14.9309 19.1234 14.5937 20.2969C14.098 22.0222 12.9413 23.4822 11.375 24.3594C10.4004 24.8903 9.63023 25.7304 9.18571 26.7473C8.74118 27.7642 8.64761 28.9001 8.91972 29.976C9.19183 31.0519 9.81417 32.0067 10.6887 32.69C11.5632 33.3733 12.6402 33.7462 13.75 33.75C14.4205 33.7504 15.0844 33.6176 15.7031 33.3594C17.0653 32.7946 18.5254 32.5039 20 32.5039C21.4746 32.5039 22.9347 32.7946 24.2969 33.3594C24.9156 33.6176 25.5795 33.7504 26.25 33.75C27.3598 33.7462 28.4368 33.3733 29.3113 32.69C30.1858 32.0067 30.8081 31.0519 31.0803 29.976C31.3524 28.9001 31.2588 27.7642 30.8143 26.7473C30.3697 25.7304 29.5995 24.8903 28.625 24.3594Z" stroke="#E25300" stroke-width="3" stroke-linecap="round" stroke-linejoin="round"/>
<path d="M32.5 20C34.5711 20 36.25 18.3211 36.25 16.25C36.25 14.1789 34.5711 12.5 32.5 12.5C30.4289 12.5 28.75 14.1789 28.75 16.25C28.75 18.3211 30.4289 20 32.5 20Z" fill="#E25300"/>
<path d="M7.5 20C9.57107 20 11.25 18.3211 11.25 16.25C11.25 14.1789 9.57107 12.5 7.5 12.5C5.42893 12.5 3.75 14.1789 3.75 16.25C3.75 18.3211 5.42893 20 7.5 20Z" fill="#E25300"/>
<path d="M15 12.5C17.0711 12.5 18.75 10.8211 18.75 8.75C18.75 6.67893 17.0711 5 15 5C12.9289 5 11.25 6.67893 11.25 8.75C11.25 10.8211 12.9289 12.5 15 12.5Z" fill="#E25300"/>
<path d="M25 12.5C27.0711 12.5 28.75 10.8211 28.75 8.75C28.75 6.67893 27.0711 5 25 5C22.9289 5 21.25 6.67893 21.25 8.75C21.25 10.8211 22.9289 12.5 25 12.5Z" fill="#E25300"/>
</g>
<defs>
<clipPath id="clip0_5_414">
<rect width="40" height="40" fill="white"/>
</clipPath>
</defs>
</svg>
