<svg width="21" height="20" viewBox="0 0 21 20" fill="none" xmlns="http://www.w3.org/2000/svg">
<g clip-path="url(#clip0_7_441)">
<path d="M10.5 0C8.52219 0 6.58879 0.58649 4.9443 1.6853C3.29981 2.78412 2.01809 4.3459 1.26121 6.17316C0.504333 8.00042 0.3063 10.0111 0.692152 11.9509C1.078 13.8907 2.03041 15.6725 3.42894 17.0711C4.82746 18.4696 6.60929 19.422 8.5491 19.8078C10.4889 20.1937 12.4996 19.9957 14.3268 19.2388C16.1541 18.4819 17.7159 17.2002 18.8147 15.5557C19.9135 13.9112 20.5 11.9778 20.5 10C20.4971 7.34872 19.4426 4.80687 17.5679 2.93213C15.6931 1.05739 13.1513 0.00289575 10.5 0ZM10.5 18.3333C8.85182 18.3333 7.24066 17.8446 5.87025 16.9289C4.49984 16.0132 3.43174 14.7117 2.80101 13.189C2.17028 11.6663 2.00525 9.99075 2.32679 8.37424C2.64834 6.75774 3.44201 5.27288 4.60745 4.10744C5.77288 2.942 7.25774 2.14833 8.87425 1.82679C10.4908 1.50525 12.1663 1.67027 13.689 2.301C15.2117 2.93173 16.5132 3.99984 17.4289 5.37025C18.3446 6.74066 18.8333 8.35182 18.8333 10C18.8308 12.2094 17.9521 14.3275 16.3898 15.8898C14.8275 17.4521 12.7094 18.3308 10.5 18.3333Z" fill="#E25300"/>
<path d="M13.8118 8.90625L10.0475 6.27867C9.8476 6.13924 9.61329 6.05727 9.37005 6.04167C9.12682 6.02608 8.88395 6.07744 8.66786 6.19018C8.45177 6.30293 8.2707 6.47274 8.14435 6.68117C8.018 6.8896 7.95118 7.12867 7.95117 7.37241V12.6276C7.951 12.8714 8.0177 13.1106 8.14401 13.3192C8.27032 13.5277 8.45142 13.6976 8.66758 13.8104C8.88374 13.9232 9.1267 13.9745 9.37 13.9588C9.61331 13.9431 9.84765 13.861 10.0475 13.7213L13.8118 11.0937V11.0931C13.9879 10.9702 14.1317 10.8066 14.231 10.6162C14.3303 10.4259 14.3822 10.2143 14.3822 9.99964C14.3822 9.78493 14.3303 9.5734 14.231 9.38303C14.1317 9.19266 13.9879 9.02912 13.8118 8.90625Z" fill="#E25300"/>
</g>
<defs>
<clipPath id="clip0_7_441">
<rect width="20" height="20" fill="white" transform="translate(0.5)"/>
</clipPath>
</defs>
</svg>
